<svg xmlns="http://www.w3.org/2000/svg" data-name="Camada 1" viewBox="0 0 100 100"><path d="M90.21615,49.06483,60.65739,46.95024,54.28862,58.25171c-.10684.18941-3.09939-.98935-3.37622-1.099a25.30714,25.30714,0,0,1-3.99788-1.986,30.0331,30.0331,0,0,1-6.7994-5.97841,22.15162,22.15162,0,0,1-2.464-3.57586c-.15947-.28179-1.87146-3.34759-1.67395-3.4942L46.39566,34.3753,40.59351,5.3092,4.55022,0,3.26,4.0161A67.91679,67.91679,0,0,0,.732,14.9,67.56316,67.56316,0,0,0,96.18262,85.93973L100,84.156ZM83.042,80.23623A57.67506,57.67506,0,0,1,10.56688,16.3486c.259-1.76278.60223-3.52516,1.03367-5.25061l20.61917,3.03717,3.18682,16.0147-10.83047,8.0495.70908,3.14947A36.99806,36.99806,0,0,0,55.948,68.71944c.14651.01963.293.03653.44034.05494l3.224.30911,6.62617-11.76123,16.274,1.1649,5.60869,20.08028C86.45463,79.18667,84.7483,79.753,83.042,80.23623Z"/></svg>